<?xml version="1.0" standalone="no"?>
<!DOCTYPE svg PUBLIC "-//W3C//DTD SVG 20010904//EN"
 "http://www.w3.org/TR/2001/REC-SVG-20010904/DTD/svg10.dtd">
<svg version="1.0" xmlns="http://www.w3.org/2000/svg"
 width="214.000000pt" height="235.000000pt" viewBox="0 0 214.000000 235.000000"
 preserveAspectRatio="xMidYMid meet">
<metadata>
Created by potrace 1.15, written by Peter Selinger 2001-2017
</metadata>
<g transform="translate(0.000000,235.000000) scale(0.100000,-0.100000)"
fill="#000000" stroke="none">
<path d="M1900 2205 c-7 -9 -21 -13 -31 -10 -9 3 -20 1 -24 -5 -4 -7 -19 -9
-34 -6 l-26 5 25 -12 c28 -14 40 -40 13 -30 -12 5 -14 3 -8 -7 5 -8 3 -11 -6
-8 -8 3 -13 10 -12 16 1 5 -7 8 -18 5 -17 -5 -14 -9 21 -29 23 -13 47 -21 53
-17 6 3 7 1 3 -6 -4 -6 2 -24 14 -41 31 -43 36 -116 12 -162 -28 -53 -13 -47
25 10 65 95 79 187 42 267 -23 49 -30 53 -49 30z"/>
<path d="M1345 1920 c-3 -11 -13 -20 -21 -20 -8 0 -14 -6 -15 -12 -1 -7 -5 -2
-9 12 l-8 25 -1 -27 c-1 -18 -7 -28 -16 -28 -8 0 -15 5 -15 10 0 18 -18 10
-23 -10 -3 -11 -12 -20 -21 -20 -21 0 -35 -55 -43 -174 -6 -94 -5 -98 13 -93
10 3 40 8 65 11 l45 7 13 100 c6 55 22 131 35 169 12 39 19 70 15 70 -4 0 -11
-9 -14 -20z"/>
<path d="M905 1513 c-58 -5 -275 -53 -310 -68 -16 -7 -50 -20 -75 -30 -63 -23
-172 -84 -192 -108 -10 -11 -18 -17 -18 -13 0 3 -24 -17 -53 -46 -202 -199
-242 -500 -102 -753 90 -162 254 -271 469 -312 65 -13 96 -14 161 -5 86 11
175 41 215 72 23 18 21 18 -30 -2 -83 -32 -187 -30 -265 5 -82 38 -146 103
-186 191 -31 65 -34 79 -34 171 0 73 5 115 20 158 10 31 22 57 26 57 4 0 9 10
13 23 3 12 13 31 23 42 10 11 29 37 41 57 55 89 246 230 385 283 26 10 47 22
47 27 0 5 4 7 8 4 8 -5 95 24 106 35 3 3 -12 5 -33 5 -22 -1 -39 1 -39 4 3 14
-15 60 -23 60 -5 0 -14 11 -19 25 -5 14 -14 25 -20 25 -5 0 -10 7 -10 15 0 9
-7 27 -16 40 -13 19 -22 23 -47 19 -28 -4 -27 -2 8 10 42 15 33 17 -50 9z"/>
<path d="M1260 1329 c-14 -6 -33 -8 -42 -5 -10 2 -16 1 -13 -4 3 -4 -4 -10
-15 -13 -18 -5 -20 -14 -20 -109 -1 -170 -34 -345 -89 -463 -27 -58 -27 -61
-9 -62 16 -2 19 3 14 22 -4 14 -1 25 8 28 9 4 12 -2 9 -21 -4 -21 -2 -24 6
-12 9 13 11 13 11 -2 0 -10 6 -18 13 -18 8 0 22 -9 32 -20 10 -11 24 -20 31
-20 7 0 15 -6 18 -12 3 -7 3 -2 -1 12 -5 22 -4 23 10 12 12 -10 16 -10 20 0 5
13 10 -12 8 -42 -2 -38 32 62 51 148 17 79 21 135 22 297 1 209 -7 295 -27
294 -7 0 -23 -5 -37 -10z"/>
</g>
</svg>
